<svg width="24" height="24" viewBox="0 0 24 24" fill="none" xmlns="http://www.w3.org/2000/svg">
<g filter="url(#filter0_i_1_138)">
<circle cx="8.99999" cy="9.99999" r="6.99999" fill="#FBCA1C"/>
<circle cx="8.99999" cy="9.99999" r="6.99999" fill="url(#paint0_radial_1_138)" fill-opacity="0.2"/>
</g>
<g filter="url(#filter1_i_1_138)">
<path d="M22.657 14.3333C22.6634 14.223 22.6666 14.1119 22.6666 14C22.6666 10.8704 20.1296 8.33334 17 8.33334C15.494 8.33334 14.1253 8.9208 13.1104 9.87906C12.597 9.74056 12.0571 9.66668 11.5 9.66668C9.48485 9.66668 7.69549 10.6332 6.57018 12.128C6.22717 12.0444 5.86877 12 5.5 12C3.01471 12 1 14.0147 1 16.5C1 16.5116 1.00004 16.5232 1.00012 16.5347C1.00004 16.5429 1 16.551 1 16.5591C1 19.564 3.43595 22 6.44085 22H15C19.2342 22 22.6666 18.5675 22.6666 14.3333H22.657Z" fill="white"/>
<path d="M22.657 14.3333C22.6634 14.223 22.6666 14.1119 22.6666 14C22.6666 10.8704 20.1296 8.33334 17 8.33334C15.494 8.33334 14.1253 8.9208 13.1104 9.87906C12.597 9.74056 12.0571 9.66668 11.5 9.66668C9.48485 9.66668 7.69549 10.6332 6.57018 12.128C6.22717 12.0444 5.86877 12 5.5 12C3.01471 12 1 14.0147 1 16.5C1 16.5116 1.00004 16.5232 1.00012 16.5347C1.00004 16.5429 1 16.551 1 16.5591C1 19.564 3.43595 22 6.44085 22H15C19.2342 22 22.6666 18.5675 22.6666 14.3333H22.657Z" fill="url(#paint1_radial_1_138)" fill-opacity="0.2"/>
</g>
<defs>
<filter id="filter0_i_1_138" x="2" y="3" width="14" height="14" filterUnits="userSpaceOnUse" color-interpolation-filters="sRGB">
<feFlood flood-opacity="0" result="BackgroundImageFix"/>
<feBlend mode="normal" in="SourceGraphic" in2="BackgroundImageFix" result="shape"/>
<feColorMatrix in="SourceAlpha" type="matrix" values="0 0 0 0 0 0 0 0 0 0 0 0 0 0 0 0 0 0 127 0" result="hardAlpha"/>
<feOffset/>
<feGaussianBlur stdDeviation="1.5"/>
<feComposite in2="hardAlpha" operator="arithmetic" k2="-1" k3="1"/>
<feColorMatrix type="matrix" values="0 0 0 0 0.984314 0 0 0 0 0.529569 0 0 0 0 0.109804 0 0 0 0.5 0"/>
<feBlend mode="normal" in2="shape" result="effect1_innerShadow_1_138"/>
</filter>
<filter id="filter1_i_1_138" x="1" y="8.33334" width="21.6666" height="13.6667" filterUnits="userSpaceOnUse" color-interpolation-filters="sRGB">
<feFlood flood-opacity="0" result="BackgroundImageFix"/>
<feBlend mode="normal" in="SourceGraphic" in2="BackgroundImageFix" result="shape"/>
<feColorMatrix in="SourceAlpha" type="matrix" values="0 0 0 0 0 0 0 0 0 0 0 0 0 0 0 0 0 0 127 0" result="hardAlpha"/>
<feOffset/>
<feGaussianBlur stdDeviation="0.999999"/>
<feComposite in2="hardAlpha" operator="arithmetic" k2="-1" k3="1"/>
<feColorMatrix type="matrix" values="0 0 0 0 0.301961 0 0 0 0 0.368627 0 0 0 0 0.435294 0 0 0 0.08 0"/>
<feBlend mode="normal" in2="shape" result="effect1_innerShadow_1_138"/>
</filter>
<radialGradient id="paint0_radial_1_138" cx="0" cy="0" r="1" gradientUnits="userSpaceOnUse" gradientTransform="translate(7.33333 7.33333) rotate(50.7106) scale(9.4751 6.61925)">
<stop stop-color="#FBCA1C"/>
<stop offset="1" stop-color="#E4750E"/>
</radialGradient>
<radialGradient id="paint1_radial_1_138" cx="0" cy="0" r="1" gradientUnits="userSpaceOnUse" gradientTransform="translate(16.1667 9.66667) rotate(121.827) scale(17.066 27.0559)">
<stop stop-opacity="0"/>
<stop offset="1" stop-color="#4D5E6F"/>
</radialGradient>
</defs>
</svg>
