<svg width="24" height="24" viewBox="0 0 24 24" fill="none" xmlns="http://www.w3.org/2000/svg">
<g filter="url(#filter0_i_1_150)">
<path d="M22.657 7.99999C22.6634 7.8897 22.6666 7.77856 22.6666 7.66666C22.6666 4.53705 20.1296 2 17 2C15.494 2 14.1253 2.58746 13.1104 3.54572C12.597 3.40721 12.0571 3.33333 11.5 3.33333C9.48485 3.33333 7.69549 4.29989 6.57018 5.79469C6.22717 5.71102 5.86877 5.66666 5.5 5.66666C3.01471 5.66666 1 7.68138 1 10.1667C1 10.1782 1.00004 10.1898 1.00012 10.2014C1.00004 10.2095 1 10.2176 1 10.2258C1 13.2307 3.43595 15.6667 6.44085 15.6667H15C19.2342 15.6667 22.6666 12.2342 22.6666 7.99999H22.657Z" fill="white"/>
<path d="M22.657 7.99999C22.6634 7.8897 22.6666 7.77856 22.6666 7.66666C22.6666 4.53705 20.1296 2 17 2C15.494 2 14.1253 2.58746 13.1104 3.54572C12.597 3.40721 12.0571 3.33333 11.5 3.33333C9.48485 3.33333 7.69549 4.29989 6.57018 5.79469C6.22717 5.71102 5.86877 5.66666 5.5 5.66666C3.01471 5.66666 1 7.68138 1 10.1667C1 10.1782 1.00004 10.1898 1.00012 10.2014C1.00004 10.2095 1 10.2176 1 10.2258C1 13.2307 3.43595 15.6667 6.44085 15.6667H15C19.2342 15.6667 22.6666 12.2342 22.6666 7.99999H22.657Z" fill="url(#paint0_radial_1_150)" fill-opacity="0.2"/>
</g>
<g filter="url(#filter1_ii_1_150)">
<path d="M14.5907 19.1415C14.5907 18.511 15.1017 18 15.7322 18H16.5882V18.8561C16.5882 19.4865 16.0772 19.9975 15.4468 19.9975C14.974 19.9975 14.5907 19.6143 14.5907 19.1415Z" fill="#379ADC"/>
</g>
<g filter="url(#filter2_ii_1_150)">
<path d="M10.5956 21.9356C10.5956 21.3052 11.1066 20.7941 11.737 20.7941H12.5931V21.6502C12.5931 22.2806 12.0821 22.7917 11.4517 22.7917C10.9789 22.7917 10.5956 22.4084 10.5956 21.9356Z" fill="#379ADC"/>
</g>
<g filter="url(#filter3_ii_1_150)">
<path d="M7 19.1415C7 18.511 7.51105 18 8.14146 18H8.99755V18.8561C8.99755 19.4865 8.4865 19.9975 7.85609 19.9975C7.38329 19.9975 7 19.6143 7 19.1415Z" fill="#379ADC"/>
</g>
<defs>
<filter id="filter0_i_1_150" x="1" y="2" width="21.6666" height="13.6667" filterUnits="userSpaceOnUse" color-interpolation-filters="sRGB">
<feFlood flood-opacity="0" result="BackgroundImageFix"/>
<feBlend mode="normal" in="SourceGraphic" in2="BackgroundImageFix" result="shape"/>
<feColorMatrix in="SourceAlpha" type="matrix" values="0 0 0 0 0 0 0 0 0 0 0 0 0 0 0 0 0 0 127 0" result="hardAlpha"/>
<feOffset/>
<feGaussianBlur stdDeviation="0.999999"/>
<feComposite in2="hardAlpha" operator="arithmetic" k2="-1" k3="1"/>
<feColorMatrix type="matrix" values="0 0 0 0 0.301961 0 0 0 0 0.368627 0 0 0 0 0.435294 0 0 0 0.08 0"/>
<feBlend mode="normal" in2="shape" result="effect1_innerShadow_1_150"/>
</filter>
<filter id="filter1_ii_1_150" x="14.5907" y="17.6005" width="1.99756" height="2.39707" filterUnits="userSpaceOnUse" color-interpolation-filters="sRGB">
<feFlood flood-opacity="0" result="BackgroundImageFix"/>
<feBlend mode="normal" in="SourceGraphic" in2="BackgroundImageFix" result="shape"/>
<feColorMatrix in="SourceAlpha" type="matrix" values="0 0 0 0 0 0 0 0 0 0 0 0 0 0 0 0 0 0 127 0" result="hardAlpha"/>
<feOffset/>
<feGaussianBlur stdDeviation="0.39951"/>
<feComposite in2="hardAlpha" operator="arithmetic" k2="-1" k3="1"/>
<feColorMatrix type="matrix" values="0 0 0 0 0 0 0 0 0 0 0 0 0 0 0 0 0 0 0.25 0"/>
<feBlend mode="normal" in2="shape" result="effect1_innerShadow_1_150"/>
<feColorMatrix in="SourceAlpha" type="matrix" values="0 0 0 0 0 0 0 0 0 0 0 0 0 0 0 0 0 0 127 0" result="hardAlpha"/>
<feOffset dy="-0.39951"/>
<feGaussianBlur stdDeviation="0.39951"/>
<feComposite in2="hardAlpha" operator="arithmetic" k2="-1" k3="1"/>
<feColorMatrix type="matrix" values="0 0 0 0 0 0 0 0 0 0 0 0 0 0 0 0 0 0 0.25 0"/>
<feBlend mode="normal" in2="effect1_innerShadow_1_150" result="effect2_innerShadow_1_150"/>
</filter>
<filter id="filter2_ii_1_150" x="10.5956" y="20.3946" width="1.99756" height="2.39707" filterUnits="userSpaceOnUse" color-interpolation-filters="sRGB">
<feFlood flood-opacity="0" result="BackgroundImageFix"/>
<feBlend mode="normal" in="SourceGraphic" in2="BackgroundImageFix" result="shape"/>
<feColorMatrix in="SourceAlpha" type="matrix" values="0 0 0 0 0 0 0 0 0 0 0 0 0 0 0 0 0 0 127 0" result="hardAlpha"/>
<feOffset/>
<feGaussianBlur stdDeviation="0.39951"/>
<feComposite in2="hardAlpha" operator="arithmetic" k2="-1" k3="1"/>
<feColorMatrix type="matrix" values="0 0 0 0 0 0 0 0 0 0 0 0 0 0 0 0 0 0 0.25 0"/>
<feBlend mode="normal" in2="shape" result="effect1_innerShadow_1_150"/>
<feColorMatrix in="SourceAlpha" type="matrix" values="0 0 0 0 0 0 0 0 0 0 0 0 0 0 0 0 0 0 127 0" result="hardAlpha"/>
<feOffset dy="-0.39951"/>
<feGaussianBlur stdDeviation="0.39951"/>
<feComposite in2="hardAlpha" operator="arithmetic" k2="-1" k3="1"/>
<feColorMatrix type="matrix" values="0 0 0 0 0 0 0 0 0 0 0 0 0 0 0 0 0 0 0.25 0"/>
<feBlend mode="normal" in2="effect1_innerShadow_1_150" result="effect2_innerShadow_1_150"/>
</filter>
<filter id="filter3_ii_1_150" x="7" y="17.6005" width="1.99756" height="2.39707" filterUnits="userSpaceOnUse" color-interpolation-filters="sRGB">
<feFlood flood-opacity="0" result="BackgroundImageFix"/>
<feBlend mode="normal" in="SourceGraphic" in2="BackgroundImageFix" result="shape"/>
<feColorMatrix in="SourceAlpha" type="matrix" values="0 0 0 0 0 0 0 0 0 0 0 0 0 0 0 0 0 0 127 0" result="hardAlpha"/>
<feOffset/>
<feGaussianBlur stdDeviation="0.39951"/>
<feComposite in2="hardAlpha" operator="arithmetic" k2="-1" k3="1"/>
<feColorMatrix type="matrix" values="0 0 0 0 0 0 0 0 0 0 0 0 0 0 0 0 0 0 0.25 0"/>
<feBlend mode="normal" in2="shape" result="effect1_innerShadow_1_150"/>
<feColorMatrix in="SourceAlpha" type="matrix" values="0 0 0 0 0 0 0 0 0 0 0 0 0 0 0 0 0 0 127 0" result="hardAlpha"/>
<feOffset dy="-0.39951"/>
<feGaussianBlur stdDeviation="0.39951"/>
<feComposite in2="hardAlpha" operator="arithmetic" k2="-1" k3="1"/>
<feColorMatrix type="matrix" values="0 0 0 0 0 0 0 0 0 0 0 0 0 0 0 0 0 0 0.25 0"/>
<feBlend mode="normal" in2="effect1_innerShadow_1_150" result="effect2_innerShadow_1_150"/>
</filter>
<radialGradient id="paint0_radial_1_150" cx="0" cy="0" r="1" gradientUnits="userSpaceOnUse" gradientTransform="translate(16.1667 3.33333) rotate(121.827) scale(17.066 27.0559)">
<stop stop-opacity="0"/>
<stop offset="1" stop-color="#4D5E6F"/>
</radialGradient>
</defs>
</svg>
