<svg width="24" height="24" viewBox="0 0 24 24" fill="none" xmlns="http://www.w3.org/2000/svg">
<g filter="url(#filter0_i_1_144)">
<path d="M22.657 11C22.6634 10.8897 22.6666 10.7786 22.6666 10.6667C22.6666 7.53705 20.1296 5 17 5C15.494 5 14.1253 5.58746 13.1104 6.54572C12.597 6.40721 12.0571 6.33333 11.5 6.33333C9.48485 6.33333 7.69549 7.29989 6.57018 8.79469C6.22717 8.71102 5.86877 8.66666 5.5 8.66666C3.01471 8.66666 1 10.6814 1 13.1667C1 13.1782 1.00004 13.1898 1.00012 13.2014C1.00004 13.2095 1 13.2176 1 13.2258C1 16.2307 3.43595 18.6667 6.44085 18.6667H15C19.2342 18.6667 22.6666 15.2342 22.6666 11H22.657Z" fill="white"/>
<path d="M22.657 11C22.6634 10.8897 22.6666 10.7786 22.6666 10.6667C22.6666 7.53705 20.1296 5 17 5C15.494 5 14.1253 5.58746 13.1104 6.54572C12.597 6.40721 12.0571 6.33333 11.5 6.33333C9.48485 6.33333 7.69549 7.29989 6.57018 8.79469C6.22717 8.71102 5.86877 8.66666 5.5 8.66666C3.01471 8.66666 1 10.6814 1 13.1667C1 13.1782 1.00004 13.1898 1.00012 13.2014C1.00004 13.2095 1 13.2176 1 13.2258C1 16.2307 3.43595 18.6667 6.44085 18.6667H15C19.2342 18.6667 22.6666 15.2342 22.6666 11H22.657Z" fill="url(#paint0_radial_1_144)" fill-opacity="0.2"/>
</g>
<defs>
<filter id="filter0_i_1_144" x="1" y="5" width="21.6666" height="13.6667" filterUnits="userSpaceOnUse" color-interpolation-filters="sRGB">
<feFlood flood-opacity="0" result="BackgroundImageFix"/>
<feBlend mode="normal" in="SourceGraphic" in2="BackgroundImageFix" result="shape"/>
<feColorMatrix in="SourceAlpha" type="matrix" values="0 0 0 0 0 0 0 0 0 0 0 0 0 0 0 0 0 0 127 0" result="hardAlpha"/>
<feOffset/>
<feGaussianBlur stdDeviation="0.999999"/>
<feComposite in2="hardAlpha" operator="arithmetic" k2="-1" k3="1"/>
<feColorMatrix type="matrix" values="0 0 0 0 0.301961 0 0 0 0 0.368627 0 0 0 0 0.435294 0 0 0 0.08 0"/>
<feBlend mode="normal" in2="shape" result="effect1_innerShadow_1_144"/>
</filter>
<radialGradient id="paint0_radial_1_144" cx="0" cy="0" r="1" gradientUnits="userSpaceOnUse" gradientTransform="translate(16.1667 6.33333) rotate(121.827) scale(17.066 27.0559)">
<stop stop-opacity="0"/>
<stop offset="1" stop-color="#4D5E6F"/>
</radialGradient>
</defs>
</svg>
